<?xml version="1.0" standalone="no"?>
<!DOCTYPE svg PUBLIC "-//W3C//DTD SVG 20010904//EN"
 "http://www.w3.org/TR/2001/REC-SVG-20010904/DTD/svg10.dtd">
<svg version="1.0" xmlns="http://www.w3.org/2000/svg"
 width="186.000000pt" height="272.000000pt" viewBox="0 0 186.000000 272.000000"
 preserveAspectRatio="xMidYMid meet">

<g transform="translate(0.000000,272.000000) scale(0.100000,-0.100000)"
fill="#000000" stroke="none">
<path d="M760 2671 c0 -31 -4 -41 -20 -46 -11 -3 -25 -15 -30 -26 -9 -15 -22
-19 -62 -19 l-51 0 23 -25 23 -25 -28 0 c-41 0 -100 -68 -164 -189 l-52 -101
-75 0 c-74 0 -75 0 -114 -40 -43 -44 -53 -46 -90 -25 -34 20 -43 18 -30 -5 17
-32 85 -45 134 -26 23 9 70 16 104 16 73 0 95 9 139 59 26 30 32 33 38 19 10
-25 -21 -75 -67 -108 -51 -37 -53 -38 -210 -49 -102 -7 -134 -13 -160 -30 -41
-26 -37 -26 31 0 63 24 89 20 146 -22 22 -16 70 -39 108 -50 58 -17 74 -18
105 -8 83 27 128 82 116 143 -5 28 -2 36 14 45 34 18 53 -9 40 -56 -23 -85
-62 -127 -163 -175 -70 -33 -133 -36 -213 -13 -58 17 -59 29 -6 51 41 17 44
34 7 34 -34 0 -143 -30 -143 -40 0 -4 11 -12 25 -18 39 -18 41 -39 9 -73 l-29
-31 38 18 c43 20 55 14 73 -39 8 -24 20 -35 49 -45 35 -11 40 -11 60 8 23 21
85 38 85 23 0 -25 -99 -93 -135 -93 -10 0 -37 18 -62 40 -41 36 -51 40 -97 39
-28 -1 -62 -5 -76 -9 -23 -7 -22 -8 10 -9 19 -1 51 -6 71 -11 42 -12 93 -55
84 -71 -13 -20 6 -59 35 -74 65 -34 127 -9 165 65 l25 50 78 0 c104 0 160 20
211 76 43 46 50 64 27 64 -17 0 -64 -20 -96 -42 -21 -14 -33 -15 -70 -7 -84
20 -157 44 -160 54 -1 6 22 23 53 39 61 31 83 27 89 -17 2 -14 10 -22 23 -23
11 -1 32 -4 47 -9 21 -5 34 -2 54 14 38 30 69 27 91 -9 17 -30 30 -36 83 -42
16 -2 26 -11 31 -28 6 -23 7 -22 14 12 4 20 4 41 1 46 -3 5 -27 13 -52 17 -73
11 -78 14 -57 38 18 19 17 20 -40 15 -42 -3 -64 -11 -82 -28 -20 -18 -29 -21
-46 -13 -21 9 -19 11 24 37 l47 27 0 77 c0 72 -2 80 -31 115 -17 20 -39 37
-50 37 -23 0 -26 15 -32 134 -5 83 -3 90 19 112 13 13 27 24 33 24 13 0 54 68
47 78 -3 5 3 17 13 26 18 17 20 16 30 -1 10 -16 14 -14 48 23 79 85 78 79 28
108 -24 14 -46 26 -49 26 -3 0 -6 -18 -6 -39z"/>
<path d="M1065 2706 c-5 -2 -45 -12 -88 -22 -63 -14 -80 -22 -87 -39 -5 -12
-24 -31 -44 -43 -37 -22 -70 -73 -63 -100 3 -13 8 -9 23 16 16 27 23 32 44 26
14 -3 27 -7 29 -9 2 -3 -17 -27 -43 -56 -38 -42 -46 -58 -46 -90 0 -56 17 -85
63 -105 22 -10 57 -31 78 -46 26 -18 51 -28 75 -28 40 0 38 9 18 -89 -5 -26 1
-37 47 -86 51 -54 56 -57 92 -52 l38 5 -25 -33 c-42 -55 -36 -68 43 -91 l68
-20 28 23 c33 29 47 26 57 -15 5 -17 13 -34 19 -37 18 -12 58 5 97 39 20 18
53 37 72 41 44 9 77 39 86 77 5 23 15 34 45 46 35 14 39 18 39 51 0 20 -4 51
-9 69 -13 43 -6 40 19 -8 21 -41 31 -132 17 -161 -6 -11 -1 -19 16 -26 22 -10
24 -9 20 6 -2 10 9 40 26 66 33 52 29 65 -16 65 -29 0 -29 20 -3 79 18 40 19
43 2 36 -35 -13 -70 -17 -76 -7 -3 5 15 33 40 61 62 69 57 89 -13 56 l-52 -24
5 42 c7 48 -10 97 -52 152 -30 39 -128 117 -186 146 l-38 20 -10 -25 c-13 -36
5 -79 45 -108 76 -54 125 -108 125 -138 0 -47 -15 -43 -54 16 -23 34 -50 61
-69 69 -27 11 -36 24 -55 78 -29 82 -72 128 -143 151 -51 16 -182 31 -204 22z
m190 -83 c19 -9 35 -20 35 -24 0 -17 -42 -16 -64 2 -13 10 -31 19 -39 19 -9 0
-19 5 -22 10 -10 16 51 12 90 -7z m-140 -7 c17 -12 17 -13 -7 -18 -15 -3 -34
2 -48 14 l-22 18 29 0 c16 0 38 -6 48 -14z m145 -72 c6 -14 10 -36 10 -49 0
-13 8 -28 18 -34 13 -8 14 -12 5 -22 -20 -20 -66 28 -60 64 2 16 -2 32 -10 39
-11 9 -12 13 -1 19 21 14 28 11 38 -17z m-160 6 c16 -1 -67 -39 -87 -39 -6 -1
-2 10 10 24 15 17 29 24 42 20 11 -2 27 -5 35 -5z m344 -135 c15 -19 34 -35
42 -35 17 0 17 -5 4 -30 -7 -13 -7 -21 0 -25 5 -3 10 -17 10 -31 0 -15 16 -42
40 -68 39 -42 47 -66 34 -100 -5 -13 -9 -14 -20 -5 -8 6 -14 18 -14 26 0 7
-10 33 -21 56 -21 41 -22 41 -32 19 -6 -13 -17 -22 -25 -20 -12 2 -15 18 -13
76 2 60 0 72 -13 72 -10 0 -16 9 -16 24 0 14 -4 28 -10 31 -12 8 -13 45 -1 45
5 0 21 -16 35 -35z m-294 -55 c13 -9 13 -11 0 -20 -8 -5 -20 -10 -27 -10 -6 0
-25 -12 -42 -26 -17 -14 -38 -24 -46 -22 -13 2 -11 9 10 38 35 47 72 61 105
40z m-127 -9 c31 18 18 1 -17 -20 -35 -22 -71 -27 -81 -11 -8 14 47 40 65 30
9 -5 23 -4 33 1z m143 -176 c11 -10 27 -13 57 -9 l42 6 11 -40 c12 -46 6 -53
-39 -45 -22 4 -25 8 -16 19 17 20 -37 39 -66 24 -12 -6 -36 -10 -53 -8 l-32 3
26 33 c28 35 47 40 70 17z m87 -126 c29 -9 37 -17 37 -36 0 -19 -5 -23 -32
-23 -18 0 -40 5 -48 10 -12 7 -8 11 19 16 l34 7 -37 19 c-33 17 -52 36 -23 24
6 -2 29 -10 50 -17z m217 -25 c0 -8 11 -24 25 -36 28 -25 32 -38 10 -38 -8 0
-15 5 -15 10 0 6 -9 10 -19 10 -21 0 -31 19 -31 56 0 17 4 22 15 18 8 -4 15
-12 15 -20z"/>
<path d="M693 2447 c-28 -41 -28 -42 -2 -78 13 -19 19 -41 18 -63 -3 -32 14
-66 32 -66 5 0 9 22 9 50 0 41 -3 48 -16 43 -13 -5 -15 -2 -9 18 4 13 14 32
22 41 11 12 13 28 9 53 -9 45 -33 46 -63 2z"/>
<path d="M631 2412 c-9 -17 -11 -44 -6 -97 7 -66 9 -72 27 -67 22 5 22 1 0
142 -7 43 -8 44 -21 22z"/>
<path d="M664 2227 c-7 -20 3 -37 21 -37 23 0 26 16 5 35 -18 16 -20 16 -26 2z"/>
<path d="M793 2208 c-26 -27 -29 -51 -10 -65 22 -17 159 -63 169 -57 5 4 7 17
3 31 -4 17 0 32 11 44 16 18 16 19 -1 19 -10 0 -29 10 -41 21 -13 12 -41 23
-66 26 -36 4 -47 1 -65 -19z"/>
<path d="M756 2102 c-13 -22 26 -50 86 -61 35 -7 102 -30 149 -52 47 -21 94
-39 104 -39 16 0 16 3 -6 26 -34 36 -63 49 -151 68 -43 8 -100 27 -127 41 -28
13 -52 21 -55 17z"/>
<path d="M812 2013 c4 -24 153 -143 178 -143 33 0 12 28 -54 72 -33 23 -63 45
-64 50 -14 34 -66 52 -60 21z"/>
<path d="M1663 1950 c6 -27 3 -31 -46 -55 -99 -50 -140 -110 -101 -149 18 -19
20 -19 45 -6 10 6 19 20 19 31 0 11 23 43 54 72 47 45 76 84 76 101 0 9 -31
36 -42 36 -6 0 -8 -12 -5 -30z"/>
<path d="M1020 1913 c44 -51 63 -59 68 -31 2 11 -12 28 -39 47 -63 46 -77 38
-29 -16z"/>
<path d="M1752 1908 c-6 -6 -12 -35 -12 -64 0 -51 -2 -54 -52 -97 l-53 -46
-22 21 -22 21 -7 -27 c-8 -35 -45 -49 -104 -41 -38 5 -49 3 -64 -14 -21 -23
-46 -28 -46 -9 0 6 -2 9 -5 6 -4 -3 -3 -17 0 -31 l7 -26 22 26 c17 19 34 27
74 31 49 4 51 3 58 -23 11 -44 -12 -97 -81 -186 -66 -85 -217 -223 -263 -240
-40 -15 -44 2 -21 77 54 175 104 220 258 233 51 4 76 10 79 20 4 12 -9 13 -74
8 -184 -14 -231 -59 -309 -297 -35 -108 -43 -117 -82 -96 -29 14 -73 93 -73
130 0 16 -18 31 -26 23 -3 -3 0 -24 6 -47 6 -23 10 -44 7 -46 -2 -2 -30 5 -62
16 -73 25 -134 26 -177 1 -18 -11 -50 -23 -70 -26 -44 -8 -46 -1 -23 65 12 33
13 56 5 113 -13 92 -36 173 -62 215 -24 39 -19 56 22 81 25 15 28 20 15 25
-32 12 -83 6 -107 -14 -40 -31 -62 -116 -56 -219 5 -71 17 -121 74 -291 59
-177 73 -210 106 -246 55 -60 124 -87 208 -82 88 5 132 34 191 129 61 99 83
124 99 114 9 -6 11 -25 6 -75 -8 -88 -35 -174 -102 -325 -30 -67 -54 -136 -54
-152 0 -17 7 -67 15 -110 14 -71 14 -93 -1 -239 -16 -157 -15 -209 7 -187 5 5
14 38 20 74 15 93 22 102 29 34 4 -53 8 -60 28 -63 18 -3 26 5 42 40 26 56 25
93 -2 131 -19 26 -24 48 -27 120 -4 116 6 153 83 294 64 116 65 120 68 203 1
47 -1 128 -6 181 l-8 96 33 26 c19 14 47 29 64 33 l29 7 -19 -29 c-52 -79 -64
-142 -65 -327 l0 -117 -46 -57 c-56 -69 -94 -146 -94 -192 0 -24 9 -42 34 -67
54 -54 65 -47 63 43 -2 71 1 85 35 155 20 42 42 103 48 135 15 73 19 80 83
152 29 32 74 97 101 144 53 95 71 116 87 100 15 -15 -63 -159 -150 -278 -73
-100 -101 -152 -101 -185 0 -10 -16 -40 -36 -65 -35 -47 -36 -48 -29 -116 5
-48 4 -69 -4 -69 -6 0 -11 -4 -11 -10 0 -14 53 -12 73 3 12 8 22 43 33 107 22
139 41 206 70 249 30 46 69 70 86 53 9 -9 0 -26 -34 -69 -65 -83 -75 -109 -86
-206 -8 -70 -15 -94 -37 -123 -15 -19 -25 -37 -23 -39 9 -9 68 36 82 63 8 16
20 60 26 98 6 38 17 75 24 84 171 201 196 257 196 433 0 67 2 74 51 150 47 75
51 85 59 171 5 60 17 112 34 151 26 62 36 160 15 167 -7 2 -7 12 0 31 16 42
13 68 -10 93 -25 27 -18 44 20 44 25 0 51 15 51 31 0 20 -90 35 -108 17z m-10
-175 c38 -45 27 -185 -22 -283 -24 -48 -30 -72 -30 -124 0 -46 -4 -65 -14 -69
-8 -3 -16 -18 -18 -34 -2 -15 -7 -28 -13 -28 -6 0 -11 49 -13 120 l-3 121 30
28 c29 27 30 32 24 90 -5 56 -3 64 21 93 30 35 33 55 11 73 -14 12 -12 30 4
30 4 0 15 -8 23 -17z m-212 -487 c0 -2 -20 -14 -45 -26 -61 -30 -102 -82 -115
-147 -17 -81 -6 -85 28 -11 31 68 104 158 128 158 8 0 14 -3 14 -6 0 -3 -33
-49 -73 -102 -40 -54 -93 -135 -117 -182 -39 -74 -45 -81 -48 -57 -5 42 25
171 53 231 14 29 44 74 66 100 33 38 47 46 75 46 19 0 34 -2 34 -4z m-713 -67
c15 -5 44 -21 63 -34 20 -14 60 -28 90 -32 38 -6 56 -13 58 -24 3 -18 -71
-130 -112 -168 -30 -28 -45 -22 -28 12 6 12 13 39 17 59 5 30 10 37 31 40 61
8 9 32 -136 63 -23 5 -24 4 -6 -9 26 -21 33 -166 7 -166 -51 0 -119 79 -127
148 -6 48 13 83 56 104 41 21 49 22 87 7z m298 -352 c-43 -78 -47 -102 -4 -29
32 57 61 67 67 24 2 -16 -7 -32 -33 -55 -42 -36 -66 -80 -85 -152 -7 -27 -25
-75 -38 -105 -21 -44 -26 -51 -29 -33 -9 50 63 285 113 370 40 68 47 50 9 -20z"/>
<path d="M1066 725 c-9 -26 -7 -32 5 -12 6 10 9 21 6 23 -2 3 -7 -2 -11 -11z"/>
<path d="M1653 1820 c-18 -21 -33 -46 -33 -54 0 -28 27 -17 59 23 56 70 31
100 -26 31z"/>
<path d="M1140 1841 c0 -34 176 -85 205 -61 11 9 10 15 -7 32 -19 19 -22 19
-30 4 -13 -23 -46 -20 -97 9 -45 26 -71 32 -71 16z"/>
<path d="M1002 1810 c-16 -26 -16 -27 10 -26 17 1 25 -7 34 -34 14 -44 24 -46
54 -15 13 14 19 25 13 25 -6 0 -16 -7 -23 -15 -20 -24 -26 -18 -22 26 3 28 0
44 -9 50 -23 14 -43 10 -57 -11z"/>
<path d="M1410 1770 c0 -5 5 -10 10 -10 6 0 10 -7 10 -15 0 -8 7 -15 15 -15 9
0 15 9 15 25 0 20 -5 25 -25 25 -14 0 -25 -4 -25 -10z"/>
<path d="M910 1758 c0 -11 32 -10 50 2 11 8 7 10 -17 8 -18 -1 -33 -6 -33 -10z"/>
<path d="M1166 1746 c21 -15 30 -14 19 3 -3 6 -14 11 -23 11 -13 0 -13 -2 4
-14z"/>
<path d="M1273 1733 c-7 -2 -13 -11 -13 -19 0 -11 -47 -44 -63 -44 -2 0 -3 12
-1 28 2 16 1 19 -2 7 -4 -10 -13 -29 -21 -42 l-15 -23 47 21 c34 15 62 20 101
17 30 -1 54 -2 54 0 0 9 -24 48 -34 54 -12 9 -35 9 -53 1z"/>
<path d="M730 1726 c0 -3 26 -12 58 -21 58 -17 110 -43 216 -108 58 -36 99
-46 110 -29 3 5 -12 17 -32 26 -20 10 -77 45 -125 77 -87 58 -90 59 -158 59
-38 0 -69 -2 -69 -4z"/>
<path d="M790 1641 c0 -13 51 -61 83 -77 31 -17 128 -15 134 1 2 6 -21 11 -52
11 -46 1 -65 8 -110 38 -30 20 -55 32 -55 27z"/>
<path d="M1250 1441 c0 -12 11 -23 31 -30 26 -9 39 -7 75 9 55 24 56 31 3 17
-33 -8 -47 -7 -75 6 -32 16 -34 16 -34 -2z"/>
</g>
</svg>
