<?xml version="1.0" standalone="no"?>
<!DOCTYPE svg PUBLIC "-//W3C//DTD SVG 20010904//EN"
 "http://www.w3.org/TR/2001/REC-SVG-20010904/DTD/svg10.dtd">
<svg version="1.0" xmlns="http://www.w3.org/2000/svg"
 width="240.000000pt" height="360.000000pt" viewBox="0 0 240.000000 360.000000"
 preserveAspectRatio="xMidYMid meet">

<g transform="translate(0.000000,360.000000) scale(0.100000,-0.100000)"
fill="#000000" stroke="none">
<path d="M0 2620 l0 -980 25 0 c14 0 25 5 25 11 0 8 5 8 15 -1 20 -17 10 -30
-25 -30 -28 0 -49 -15 -31 -22 4 -2 5 -27 0 -58 -10 -70 -9 -307 1 -340 8 -29
17 -15 22 35 6 58 23 29 26 -43 l3 -73 -31 16 -30 16 0 -233 c0 -246 4 -283
26 -274 20 8 17 -14 -4 -30 -15 -11 -17 -40 -20 -313 l-3 -301 405 0 c223 0
406 1 406 3 0 1 7 40 15 86 14 80 14 85 -4 97 -18 13 -25 110 -36 464 -1 30
-5 69 -8 85 -4 17 -13 118 -22 225 -19 231 -57 402 -141 633 -30 81 -54 155
-54 163 0 26 43 13 50 -16 3 -14 14 -26 23 -28 15 -3 17 1 11 22 -7 30 2 33
33 11 13 -9 23 -11 25 -5 2 7 21 5 53 -4 28 -8 85 -22 127 -31 43 -9 80 -20
83 -26 4 -5 17 -9 30 -9 30 0 61 -39 76 -94 6 -22 17 -48 24 -56 33 -39 112
-349 139 -545 21 -157 59 -642 53 -692 -2 -24 -1 -43 4 -43 5 0 9 -54 9 -120
l0 -121 78 3 77 3 5 34 c5 32 15 44 51 54 10 4 18 22 22 52 4 25 11 55 17 65
10 19 12 19 35 4 20 -13 25 -25 25 -59 0 -46 11 -61 50 -67 22 -3 25 -9 28
-45 l3 -43 80 0 c60 0 79 3 79 14 0 7 10 21 23 29 18 13 19 16 5 16 -14 1 -18
10 -18 39 0 21 -6 44 -12 50 -17 17 -25 222 -9 222 6 0 11 7 11 15 0 8 -7 15
-16 15 -9 0 -14 7 -12 17 3 12 12 17 28 15 40 -4 50 -10 50 -32 0 -12 4 -18
10 -15 17 10 11 49 -9 62 -10 6 -28 9 -39 6 -22 -5 -62 27 -62 51 0 8 10 18
22 22 l23 7 -22 8 c-17 6 -23 19 -28 66 -7 74 -31 206 -62 352 -21 95 -23 118
-12 137 11 21 9 26 -12 43 -19 16 -22 22 -11 32 7 8 12 9 12 2 0 -6 9 -13 21
-16 19 -5 20 -10 14 -46 -4 -27 -3 -41 4 -41 6 0 11 5 11 12 0 6 11 1 25 -12
14 -13 25 -29 25 -37 0 -30 18 -10 27 30 l9 42 41 -125 c48 -149 56 -181 46
-179 -22 4 -23 -3 -4 -18 14 -12 25 -39 32 -78 6 -33 22 -96 35 -140 13 -44
33 -132 43 -195 11 -63 27 -146 35 -185 9 -38 16 -89 16 -112 0 -45 19 -73 51
-73 23 0 25 13 4 30 -22 18 -18 39 9 50 27 10 61 61 70 106 4 18 19 51 34 75
15 24 33 62 40 85 6 22 32 71 57 110 l45 69 0 1538 0 1537 -1200 0 -1200 0 0
-980z m1875 815 c115 -34 164 -61 253 -141 148 -134 188 -233 193 -484 l3
-105 -41 0 c-80 0 -84 -18 -58 -251 14 -123 14 -139 0 -153 -13 -13 -18 -13
-48 1 -27 13 -176 58 -192 58 -2 0 -3 -19 -2 -41 l2 -42 -77 -24 c-46 -14
-104 -42 -143 -68 -36 -25 -70 -45 -75 -45 -13 0 -13 -6 5 -40 17 -33 45 -40
45 -11 0 25 35 68 70 86 43 22 90 18 150 -12 71 -36 76 -53 16 -53 l-46 0 21
-40 c12 -22 25 -37 30 -34 15 9 37 -14 44 -47 5 -23 10 -27 20 -19 19 15 25
-9 25 -94 0 -70 -14 -136 -29 -136 -4 0 -12 5 -19 12 -9 9 -15 9 -24 0 -16
-16 -28 -15 -28 3 0 17 -43 37 -63 29 -8 -3 -19 2 -26 10 -10 12 -16 13 -33 3
-16 -10 -22 -9 -38 11 -10 12 -23 22 -28 22 -6 0 -14 9 -17 20 -4 11 -25 29
-48 39 -41 19 -77 65 -77 98 0 8 9 26 20 40 27 35 25 58 -9 101 -30 39 -54 96
-44 106 13 13 30 178 19 181 -6 2 -24 6 -39 9 -15 4 -29 12 -31 19 -2 7 -9 31
-15 55 -13 47 -36 55 -66 22 -10 -11 -25 -20 -33 -20 -9 0 -6 7 9 20 l24 20
-22 6 c-20 6 -22 11 -17 44 5 29 2 38 -10 43 -13 5 -16 14 -10 42 4 21 2 35
-4 35 -13 0 -22 -25 -22 -61 0 -50 -47 -119 -81 -119 -36 0 -155 157 -159 210
-4 46 -1 54 14 41 11 -9 16 -5 26 19 12 29 44 60 62 60 5 0 8 -8 8 -18 0 -10
5 -23 12 -30 9 -9 8 -12 -4 -12 -20 0 -58 -46 -58 -70 0 -16 81 -80 102 -80
11 0 10 17 -3 42 -8 15 -6 31 11 70 25 57 20 100 -13 123 -36 25 -67 18 -107
-25 -34 -37 -60 -51 -60 -32 0 10 56 63 90 85 47 32 117 11 139 -40 6 -16 21
-33 33 -38 28 -13 48 -46 30 -52 -6 -3 -9 -9 -6 -14 8 -14 34 9 34 30 0 9 -4
21 -9 27 -5 5 -12 24 -16 42 -5 23 -3 32 7 32 7 0 19 12 25 27 11 22 10 28 -4
38 -12 9 -14 21 -10 43 4 21 2 32 -8 36 -19 7 -19 39 0 76 14 27 14 29 -8 32
-14 2 -22 10 -22 22 0 11 -6 21 -13 24 -19 6 -14 19 10 26 18 4 20 8 11 17
-10 10 -9 15 5 25 14 10 15 18 5 65 -13 59 -15 55 54 104 40 29 75 34 193 30
75 -3 131 -11 195 -30z m375 -845 c0 -5 -2 -10 -4 -10 -3 0 -8 5 -11 10 -3 6
-1 10 4 10 6 0 11 -4 11 -10z m-1381 -119 c20 -27 22 -33 9 -28 -24 8 -23 -8
0 -25 10 -7 55 -58 99 -113 44 -55 128 -156 186 -225 59 -69 107 -127 107
-130 0 -3 -14 -13 -31 -23 -17 -9 -33 -26 -36 -37 -3 -11 -9 -20 -14 -20 -5 0
-59 -32 -121 -71 l-113 -70 -34 38 c-80 91 -225 294 -259 362 -27 55 -37 89
-40 135 l-3 61 92 93 c102 104 115 108 158 53z m1161 -236 c0 -17 -4 -18 -49
-9 -40 8 -30 24 15 24 24 0 34 -5 34 -15z m101 -60 c-15 -65 -31 -74 -24 -12
8 75 13 91 25 79 8 -8 8 -26 -1 -67z m-566 35 c3 -5 1 -10 -4 -10 -6 0 -11 5
-11 10 0 6 2 10 4 10 3 0 8 -4 11 -10z m-1005 -146 c0 -8 -4 -12 -10 -9 -5 3
-10 13 -10 21 0 8 5 12 10 9 6 -3 10 -13 10 -21z m1100 11 c0 -8 -9 -19 -20
-25 -17 -9 -20 -8 -20 8 0 10 3 22 7 25 12 12 33 7 33 -8z m-1150 -95 c6 -11
9 -20 7 -20 -2 0 -12 9 -22 20 -10 11 -13 20 -7 20 6 0 16 -9 22 -20z m-415
-20 c3 -5 -1 -10 -9 -10 -9 0 -16 5 -16 10 0 6 4 10 9 10 6 0 13 -4 16 -10z
m335 0 c0 -5 -4 -10 -10 -10 -5 0 -10 5 -10 10 0 6 5 10 10 10 6 0 10 -4 10
-10z m-124 -487 c-7 -7 -26 7 -26 19 0 6 6 6 15 -2 9 -7 13 -15 11 -17z m-76
-145 c0 -24 -17 -23 -25 2 -8 26 4 48 16 29 5 -8 9 -22 9 -31z m-186 0 c3 -13
6 -27 6 -33 -1 -15 -30 27 -30 42 0 22 17 15 24 -9z m276 -38 c0 -5 -4 -10
-10 -10 -5 0 -10 5 -10 10 0 6 5 10 10 10 6 0 10 -4 10 -10z m40 -50 c0 -5 -4
-10 -9 -10 -6 0 -13 5 -16 10 -3 6 1 10 9 10 9 0 16 -4 16 -10z m-250 -44 c0
-8 -4 -18 -10 -21 -5 -3 -10 3 -10 14 0 12 5 21 10 21 6 0 10 -6 10 -14z m55
-16 c3 -5 1 -10 -4 -10 -6 0 -11 5 -11 10 0 6 2 10 4 10 3 0 8 -4 11 -10z
m1607 -7 c17 -19 48 -77 48 -89 0 -14 -40 29 -46 50 -3 11 -13 29 -22 39 -8 9
-11 17 -5 17 5 0 17 -8 25 -17z m58 -15 c0 -6 -7 -5 -15 2 -8 7 -15 17 -15 22
0 6 7 5 15 -2 8 -7 15 -17 15 -22z m-1722 -194 c12 -9 12 -15 2 -33 -24 -46
-48 15 -40 104 2 27 3 26 13 -15 6 -25 17 -50 25 -56z m1482 56 c12 -8 11 -10
-7 -10 -12 0 -25 5 -28 10 -8 13 15 13 35 0z m-1550 -10 c0 -5 -4 -10 -10 -10
-5 0 -10 5 -10 10 0 6 5 10 10 10 6 0 10 -4 10 -10z m2160 -150 c0 -5 -2 -10
-4 -10 -3 0 -8 5 -11 10 -3 6 -1 10 4 10 6 0 11 -4 11 -10z m-2155 -107 c5
-48 5 -48 -9 -18 -17 35 -22 111 -6 83 6 -9 12 -38 15 -65z m1273 -1 c2 -15
-2 -22 -12 -22 -11 0 -16 9 -16 26 0 31 23 28 28 -4z m-1198 -41 c0 -16 -12
-41 -20 -41 -4 0 -5 11 -2 25 4 23 22 36 22 16z m36 -68 c-7 -7 -26 7 -26 19
0 6 6 6 15 -2 9 -7 13 -15 11 -17z m-76 -33 c0 -5 -4 -10 -10 -10 -5 0 -10 5
-10 10 0 6 5 10 10 10 6 0 10 -4 10 -10z m1524 -265 c9 -13 16 -27 16 -31 0
-10 -30 17 -41 38 -15 27 6 22 25 -7z m-789 -185 c3 -5 1 -10 -4 -10 -6 0 -11
5 -11 10 0 6 2 10 4 10 3 0 8 -4 11 -10z"/>
<path d="M1877 2831 c-3 -12 -24 -25 -58 -36 -74 -24 -73 -22 -37 -59 18 -18
42 -48 53 -66 27 -46 80 -80 123 -80 36 0 125 45 154 77 23 26 40 94 27 109
-12 14 -158 61 -215 68 -35 5 -42 3 -47 -13z m111 -107 c12 -4 22 -10 22 -15
0 -11 -61 -12 -86 -2 -16 6 -16 7 2 14 24 10 34 10 62 3z"/>
<path d="M1200 2679 c0 -9 7 -22 15 -29 19 -16 19 0 0 26 -12 16 -14 16 -15 3z"/>
<path d="M1905 2060 c-3 -5 1 -10 9 -10 9 0 16 5 16 10 0 6 -4 10 -9 10 -6 0
-13 -4 -16 -10z"/>
<path d="M660 1680 c0 -6 -10 -8 -25 -4 -20 5 -25 2 -25 -12 0 -15 2 -16 9 -5
7 11 11 10 20 -5 9 -17 12 -17 21 -4 7 11 12 12 18 3 8 -13 62 -36 69 -30 2 2
-11 15 -29 29 -48 35 -58 41 -58 28z"/>
<path d="M745 1680 c3 -5 11 -10 16 -10 6 0 7 5 4 10 -3 6 -11 10 -16 10 -6 0
-7 -4 -4 -10z"/>
<path d="M878 1611 c-22 -11 -41 -15 -50 -10 -20 13 -34 11 -19 -3 6 -7 34
-13 60 -13 44 0 48 2 48 23 0 12 0 22 -1 22 0 -1 -17 -9 -38 -19z"/>
<path d="M695 1570 c10 -11 20 -18 23 -15 7 6 -18 35 -31 35 -5 0 -2 -9 8 -20z"/>
<path d="M705 1491 c-6 -11 9 -23 19 -14 9 9 7 23 -3 23 -6 0 -12 -4 -16 -9z"/>
<path d="M900 1493 c1 -11 50 -70 50 -60 0 16 -31 67 -40 67 -6 0 -10 -3 -10
-7z"/>
<path d="M1084 1451 c21 -23 26 -26 26 -11 0 5 -10 15 -22 21 -23 12 -23 12
-4 -10z"/>
<path d="M720 1351 c0 -5 8 -11 18 -15 9 -3 24 -9 32 -12 8 -4 3 3 -12 15 -28
23 -38 26 -38 12z"/>
<path d="M900 1260 c0 -5 5 -10 11 -10 5 0 7 5 4 10 -3 6 -8 10 -11 10 -2 0
-4 -4 -4 -10z"/>
<path d="M1127 1263 c-4 -3 2 -13 14 -21 26 -18 35 -10 11 11 -10 10 -22 14
-25 10z"/>
<path d="M750 1200 c0 -5 4 -10 9 -10 6 0 13 5 16 10 3 6 -1 10 -9 10 -9 0
-16 -4 -16 -10z"/>
<path d="M1060 1136 c0 -2 8 -10 18 -17 15 -13 16 -12 3 4 -13 16 -21 21 -21
13z"/>
<path d="M970 1104 c-10 -12 -8 -14 16 -14 19 0 40 -12 66 -37 21 -20 38 -33
38 -27 0 13 -70 79 -92 87 -9 3 -22 -1 -28 -9z"/>
<path d="M1735 1030 c3 -5 8 -10 11 -10 2 0 4 5 4 10 0 6 -5 10 -11 10 -5 0
-7 -4 -4 -10z"/>
<path d="M1190 1000 c6 -11 15 -20 21 -20 6 0 6 7 -1 20 -6 11 -15 20 -21 20
-6 0 -6 -7 1 -20z"/>
<path d="M780 974 c0 -8 5 -12 10 -9 6 3 10 10 10 16 0 5 -4 9 -10 9 -5 0 -10
-7 -10 -16z"/>
<path d="M1128 940 c2 -17 8 -30 13 -30 14 0 11 36 -4 49 -11 8 -13 5 -9 -19z"/>
<path d="M1865 880 c-3 -5 1 -10 10 -10 9 0 13 5 10 10 -3 6 -8 10 -10 10 -2
0 -7 -4 -10 -10z"/>
<path d="M1821 860 c0 -14 4 -32 9 -40 8 -12 10 -12 9 5 0 11 -4 29 -9 40 -8
18 -9 18 -9 -5z"/>
<path d="M990 861 c0 -5 5 -13 10 -16 6 -3 10 -2 10 4 0 5 -4 13 -10 16 -5 3
-10 2 -10 -4z"/>
<path d="M1132 849 c2 -7 10 -15 17 -17 8 -3 12 1 9 9 -2 7 -10 15 -17 17 -8
3 -12 -1 -9 -9z"/>
<path d="M1870 840 c0 -5 5 -10 11 -10 5 0 7 5 4 10 -3 6 -8 10 -11 10 -2 0
-4 -4 -4 -10z"/>
<path d="M1797 770 c3 -19 10 -39 14 -44 5 -6 9 -26 9 -45 0 -20 7 -48 14 -63
8 -16 18 -48 22 -73 3 -25 11 -48 17 -52 7 -4 8 10 3 43 -4 27 -9 58 -10 69
-1 11 -7 38 -13 60 -7 22 -14 52 -17 66 -3 15 -15 37 -26 50 l-20 24 7 -35z"/>
<path d="M1226 737 c3 -10 9 -15 12 -12 3 3 0 11 -7 18 -10 9 -11 8 -5 -6z"/>
<path d="M797 733 c-4 -3 -7 -13 -7 -22 1 -13 3 -13 11 2 11 19 8 33 -4 20z"/>
<path d="M985 710 c-3 -5 -2 -10 4 -10 5 0 13 5 16 10 3 6 2 10 -4 10 -5 0
-13 -4 -16 -10z"/>
<path d="M896 691 c-3 -5 1 -14 9 -21 8 -7 15 -22 16 -34 1 -16 3 -14 10 9 5
17 7 36 4 43 -5 14 -31 16 -39 3z"/>
<path d="M1201 654 c0 -11 3 -14 6 -6 3 7 2 16 -1 19 -3 4 -6 -2 -5 -13z"/>
<path d="M921 550 c0 -14 4 -32 9 -40 9 -13 10 -13 9 0 -1 8 -5 26 -9 40 l-8
25 -1 -25z"/>
<path d="M910 441 c0 -11 5 -23 10 -26 6 -4 10 5 10 19 0 14 -4 26 -10 26 -5
0 -10 -9 -10 -19z"/>
<path d="M1151 374 c0 -11 3 -14 6 -6 3 7 2 16 -1 19 -3 4 -6 -2 -5 -13z"/>
<path d="M1980 380 c0 -5 5 -10 10 -10 6 0 10 5 10 10 0 6 -4 10 -10 10 -5 0
-10 -4 -10 -10z"/>
<path d="M822 369 c2 -6 8 -10 13 -10 5 0 11 4 13 10 2 6 -4 11 -13 11 -9 0
-15 -5 -13 -11z"/>
<path d="M2014 351 c-5 -5 -18 -11 -29 -14 l-20 -5 20 -1 c22 -1 52 15 44 23
-3 3 -10 2 -15 -3z"/>
<path d="M1867 334 c-7 -8 4 -44 14 -44 12 0 12 37 0 44 -4 3 -11 3 -14 0z"/>
<path d="M895 300 c-4 -6 5 -10 20 -10 15 0 24 4 20 10 -3 6 -12 10 -20 10 -8
0 -17 -4 -20 -10z"/>
<path d="M1020 287 c0 -27 25 -65 36 -55 4 4 1 15 -7 24 -11 13 -11 18 -1 21
20 7 14 33 -8 33 -14 0 -20 -7 -20 -23z"/>
<path d="M1165 300 c3 -5 12 -7 19 -4 8 3 17 1 21 -5 10 -17 25 -13 19 4 -4 9
-19 15 -36 15 -16 0 -27 -4 -23 -10z"/>
<path d="M1925 300 c3 -5 12 -10 19 -10 7 0 18 -10 24 -22 8 -17 11 -19 11 -6
1 9 4 23 7 32 5 13 -1 16 -31 16 -21 0 -34 -4 -30 -10z"/>
<path d="M1840 260 c0 -5 5 -10 11 -10 5 0 7 5 4 10 -3 6 -8 10 -11 10 -2 0
-4 -4 -4 -10z"/>
<path d="M2002 236 c1 -10 8 -17 13 -17 15 1 12 24 -3 29 -9 3 -13 -2 -10 -12z"/>
<path d="M1217 233 c-3 -5 -1 -17 4 -28 7 -17 8 -17 8 8 1 27 -4 34 -12 20z"/>
<path d="M990 220 c0 -5 12 -22 26 -39 28 -34 44 -80 44 -129 0 -20 4 -31 10
-27 13 8 13 94 -1 131 -9 27 -79 83 -79 64z"/>
<path d="M890 209 c0 -5 5 -7 10 -4 6 3 10 8 10 11 0 2 -4 4 -10 4 -5 0 -10
-5 -10 -11z"/>
<path d="M1880 210 c0 -5 9 -10 19 -10 11 0 33 -17 50 -37 27 -32 31 -35 31
-16 0 12 -14 33 -31 47 -31 26 -69 35 -69 16z"/>
<path d="M1102 193 c-7 -12 -12 -30 -12 -40 1 -13 5 -11 16 10 8 16 13 34 11
40 -2 7 -9 3 -15 -10z"/>
<path d="M1251 189 c-1 -14 6 -34 14 -45 19 -25 19 -1 0 41 -13 30 -13 30 -14
4z"/>
<path d="M937 138 c-4 -11 -14 -14 -32 -10 -22 4 -26 2 -23 -14 4 -19 14 -21
57 -8 21 6 22 5 12 -14 -8 -16 -7 -21 4 -26 24 -9 17 -24 -12 -28 l-28 -3 32
-18 c18 -9 34 -17 36 -17 8 0 -12 100 -26 125 -10 21 -15 24 -20 13z"/>
<path d="M1170 141 c0 -6 11 -18 25 -27 23 -15 24 -18 10 -34 -14 -15 -14 -18
0 -30 8 -7 15 -20 16 -29 0 -10 4 -6 10 9 16 40 3 83 -31 103 -17 10 -30 13
-30 8z"/>
<path d="M1880 123 c1 -5 14 -24 30 -43 27 -31 30 -32 30 -12 0 12 -9 31 -20
42 -20 20 -40 26 -40 13z"/>
<path d="M850 98 c0 -18 18 -34 28 -24 3 4 -2 14 -11 23 -16 16 -17 16 -17 1z"/>
<path d="M895 70 c-3 -5 -1 -10 4 -10 6 0 11 5 11 10 0 6 -2 10 -4 10 -3 0 -8
-4 -11 -10z"/>
<path d="M860 19 c0 -11 5 -17 10 -14 6 3 10 13 10 21 0 8 -4 14 -10 14 -5 0
-10 -9 -10 -21z"/>
<path d="M1902 19 c2 -7 10 -15 17 -17 8 -3 12 1 9 9 -2 7 -10 15 -17 17 -8 3
-12 -1 -9 -9z"/>
<path d="M1255 10 c3 -5 8 -10 11 -10 2 0 4 5 4 10 0 6 -5 10 -11 10 -5 0 -7
-4 -4 -10z"/>
</g>
</svg>
