<?xml version="1.0" standalone="no"?>
<!DOCTYPE svg PUBLIC "-//W3C//DTD SVG 20010904//EN"
 "http://www.w3.org/TR/2001/REC-SVG-20010904/DTD/svg10.dtd">
<svg version="1.0" xmlns="http://www.w3.org/2000/svg"
 width="183.000000pt" height="275.000000pt" viewBox="0 0 183.000000 275.000000"
 preserveAspectRatio="xMidYMid meet">

<g transform="translate(0.000000,275.000000) scale(0.100000,-0.100000)"
fill="#000000" stroke="none">
<path d="M0 2000 l0 -750 21 0 c11 0 17 5 14 10 -9 15 4 12 21 -5 14 -13 11
-15 -20 -15 -35 0 -48 -13 -23 -23 9 -4 9 -6 0 -6 -16 -1 -19 -311 -3 -311 10
0 14 20 12 53 -1 9 2 17 7 17 13 0 20 -27 19 -78 -1 -42 -1 -42 -24 -27 l-23
15 -1 -201 c0 -179 1 -200 15 -189 12 10 15 10 15 -4 0 -9 -7 -16 -15 -16 -13
0 -15 -33 -15 -235 l0 -235 309 0 309 0 7 48 c3 26 9 57 12 70 4 16 1 22 -11
22 -13 0 -16 13 -17 73 -2 136 -8 250 -14 265 -3 8 0 22 7 30 7 9 8 13 2 9 -8
-4 -15 40 -23 146 -7 84 -14 174 -17 200 -7 76 -59 263 -103 371 -22 54 -37
104 -35 111 8 20 41 6 40 -17 -1 -12 6 -22 16 -23 14 -3 15 1 8 20 -8 20 -6
23 8 18 9 -4 23 -14 30 -22 11 -14 11 -14 6 1 -6 16 -3 17 44 3 27 -8 63 -17
78 -19 48 -6 84 -18 79 -26 -2 -4 6 -5 20 -2 19 3 28 -3 45 -29 11 -19 18 -40
15 -47 -2 -6 0 -12 6 -12 6 0 8 -7 5 -16 -3 -8 -2 -13 3 -9 5 3 15 -12 21 -32
6 -21 14 -45 17 -53 11 -28 13 -35 42 -160 31 -132 43 -229 65 -530 11 -140
11 -188 3 -199 -10 -12 -9 -13 1 -7 10 6 13 2 12 -15 -1 -13 -2 -57 -1 -96 l1
-73 59 0 60 0 3 33 c2 27 8 33 31 35 24 3 27 7 27 43 0 23 7 47 15 55 8 9 15
11 15 5 0 -6 7 -11 15 -11 11 0 15 -12 15 -45 0 -43 1 -45 30 -45 28 0 30 -3
30 -35 l0 -35 63 0 62 0 1 78 c0 50 -2 67 -6 47 -7 -29 -8 -29 -9 10 -1 22 -4
67 -7 100 -3 42 -2 56 6 45 7 -12 10 -8 9 15 0 17 -3 24 -6 17 -8 -20 -22 -14
-16 9 4 14 11 18 22 13 9 -3 22 -7 29 -7 8 0 12 -8 9 -19 -3 -10 0 -18 7 -18
7 0 12 11 12 25 0 13 -2 22 -5 20 -2 -3 -10 3 -17 13 -9 11 -13 13 -14 4 0 -9
-7 -11 -22 -6 -28 8 -24 4 -33 33 -5 16 -4 21 4 17 6 -4 11 -2 11 4 0 6 5 8
12 4 7 -4 8 -3 4 4 -4 6 -12 9 -19 6 -7 -2 -13 3 -14 13 -8 89 -14 136 -19
144 -3 6 -8 29 -10 52 -3 23 -13 79 -24 124 -23 93 -23 96 -11 89 5 -3 11 1
14 9 4 8 -2 16 -14 20 -20 7 -27 35 -8 35 5 0 7 -4 4 -10 -3 -5 0 -7 8 -4 19
7 30 -22 17 -46 -7 -13 -7 -21 0 -25 5 -3 10 1 10 9 0 14 3 14 20 -1 11 -10
20 -23 20 -30 0 -6 5 -15 10 -18 7 -4 9 3 5 22 -5 22 -4 25 4 13 8 -11 10 -7
6 20 l-5 35 16 -40 c13 -33 64 -202 64 -213 0 -2 -4 -1 -9 3 -5 3 -13 0 -17
-6 -4 -8 -3 -9 4 -5 18 11 42 -37 44 -91 2 -28 6 -49 9 -47 7 4 41 -137 46
-196 3 -25 11 -67 19 -95 11 -41 20 -103 23 -161 1 -6 15 -11 31 -12 30 -1 30
0 11 16 -14 12 -17 22 -11 37 5 11 9 14 9 7 2 -27 52 39 57 74 2 20 15 50 29
66 14 16 25 40 25 53 0 13 18 51 40 84 l40 60 0 1176 0 1175 -915 0 -915 0 0
-750z m1427 626 c100 -30 108 -34 182 -96 118 -98 157 -184 163 -352 l3 -117
-35 5 c-57 9 -64 -18 -44 -168 8 -66 13 -126 10 -134 -7 -17 -38 -18 -54 -2
-7 7 -18 13 -25 13 -18 1 -68 15 -96 26 -24 10 -25 6 -10 -50 3 -10 -9 -17
-41 -23 -52 -9 -120 -42 -156 -75 -14 -13 -30 -21 -35 -18 -12 8 -11 1 3 -30
14 -30 38 -33 38 -4 0 24 32 56 68 70 32 12 94 -5 129 -36 30 -26 25 -29 -32
-25 -29 2 -29 1 -12 -17 9 -11 17 -28 18 -39 0 -18 1 -18 8 -1 9 24 25 7 39
-43 8 -29 10 -31 11 -10 1 15 4 21 11 14 16 -16 15 -149 -3 -173 -13 -20 -15
-20 -21 -5 -6 15 -8 15 -29 -2 -12 -10 -19 -15 -15 -10 15 19 -11 44 -42 40
-23 -3 -30 0 -30 14 -1 16 -1 16 -11 -1 -8 -13 -14 -15 -30 -7 -11 6 -16 16
-13 22 5 7 2 9 -8 5 -11 -4 -18 2 -22 18 -4 16 -11 22 -21 19 -8 -4 -15 -2
-15 4 0 5 -9 12 -20 15 -11 3 -20 12 -20 21 0 9 -4 16 -10 16 -16 0 -12 47 5
54 16 6 22 66 6 66 -15 0 -57 90 -46 98 6 4 11 18 11 32 0 14 4 44 8 68 7 38
6 42 -12 42 -37 0 -52 12 -52 39 0 15 -6 35 -13 45 -12 16 -15 16 -41 -9 -16
-14 -31 -23 -35 -20 -3 4 2 11 12 16 21 12 23 33 2 25 -13 -5 -15 0 -10 28 5
25 3 35 -9 39 -12 5 -14 12 -6 31 5 15 5 28 0 31 -11 7 -24 -32 -22 -66 2 -29
-37 -79 -62 -79 -23 0 -113 118 -121 157 -7 39 1 56 15 33 8 -13 10 -12 10 3
0 20 43 67 62 67 9 0 9 -3 0 -12 -9 -9 -7 -14 6 -24 16 -12 16 -13 0 -14 -18
0 -48 -36 -48 -57 0 -15 79 -67 88 -59 3 3 0 17 -8 30 -10 20 -10 28 4 47 24
35 21 85 -6 103 -33 21 -75 10 -90 -25 -11 -26 -38 -41 -38 -21 1 24 75 82
106 82 31 0 74 -33 74 -58 0 -13 4 -21 10 -17 6 4 17 1 25 -5 17 -14 21 -45 5
-35 -5 3 -10 1 -10 -4 0 -6 6 -11 14 -11 17 0 31 31 18 39 -14 9 -26 71 -14
71 6 0 13 -6 16 -12 3 -7 3 -3 0 10 -3 12 -1 22 5 22 6 0 11 7 11 16 0 8 -5
12 -10 9 -16 -10 -23 21 -11 44 10 17 9 20 -4 15 -22 -9 -20 44 3 69 16 18 16
19 -7 16 -28 -5 -41 17 -14 24 14 4 13 5 -4 6 -25 1 -32 21 -8 21 18 0 20 16
3 23 -8 4 -7 6 4 6 12 1 16 10 14 41 -1 21 -5 42 -9 46 -9 9 12 34 29 34 7 0
17 6 21 14 12 20 29 23 123 25 65 1 104 -4 167 -23z m-386 -173 c-12 -20 -14
-14 -5 12 4 9 9 14 11 11 3 -2 0 -13 -6 -23z m30 -156 c-10 -9 -11 -8 -5 6 3
10 9 15 12 12 3 -3 0 -11 -7 -18z m649 -317 c0 -5 -2 -10 -4 -10 -3 0 -8 5
-11 10 -3 6 -1 10 4 10 6 0 11 -4 11 -10z m-1059 -91 l22 -31 -24 11 c-18 9
-15 3 12 -21 20 -18 47 -49 59 -68 22 -32 69 -89 196 -237 48 -56 51 -63 31
-63 -18 0 -49 -35 -40 -44 5 -4 3 -6 -2 -4 -6 1 -30 -11 -55 -28 -25 -17 -65
-43 -90 -57 l-46 -26 -94 119 c-114 144 -152 212 -158 283 -4 51 -3 54 37 90
23 20 41 39 41 42 0 10 64 65 76 65 7 0 23 -14 35 -31z m893 -191 c-2 -3 -17
-3 -33 2 -16 4 -33 5 -38 2 -4 -4 -3 -2 2 5 14 16 48 20 61 8 7 -5 10 -13 8
-17z m78 5 c4 -16 -21 -109 -26 -101 -1 2 0 29 2 61 4 55 16 76 24 40z m-437
-13 c3 -5 1 -10 -4 -10 -6 0 -11 5 -11 10 0 6 2 10 4 10 3 0 8 -4 11 -10z
m-765 -123 c0 -5 -4 -5 -10 -2 -5 3 -10 14 -10 23 0 15 2 15 10 2 5 -8 10 -19
10 -23z m836 22 c3 -6 0 -15 -7 -20 -22 -14 -28 -11 -22 11 6 22 18 26 29 9z
m-29 -86 c-3 -10 -5 -4 -5 12 0 17 2 24 5 18 2 -7 2 -21 0 -30z m-847 7 c6
-11 9 -20 7 -20 -2 0 -12 9 -22 20 -10 11 -13 20 -7 20 6 0 16 -9 22 -20z
m-310 -16 c0 -2 -7 -4 -15 -4 -8 0 -15 4 -15 10 0 5 7 7 15 4 8 -4 15 -8 15
-10z m245 6 c3 -5 1 -10 -4 -10 -6 0 -11 5 -11 10 0 6 2 10 4 10 3 0 8 -4 11
-10z m-248 -326 c-3 -3 -12 -4 -19 -1 -8 3 -5 6 6 6 11 1 17 -2 13 -5z m159
-51 c-7 -7 -26 7 -26 19 0 6 6 6 15 -2 9 -7 13 -15 11 -17z m-63 -122 c-9 -12
-25 20 -18 36 7 16 9 15 15 -7 4 -14 5 -27 3 -29z m-143 20 c0 -5 3 -18 6 -28
5 -16 4 -16 -10 1 -18 23 -20 36 -6 36 6 0 10 -4 10 -9z m37 -23 c-3 -7 -5 -2
-5 12 0 14 2 19 5 13 2 -7 2 -19 0 -25z m178 -7 c3 -5 1 -12 -5 -16 -5 -3 -10
1 -10 9 0 18 6 21 15 7z m28 -45 c4 -10 1 -13 -9 -9 -7 3 -14 9 -14 14 0 14
17 10 23 -5z m-193 -38 c0 -16 -3 -19 -11 -11 -6 6 -8 16 -5 22 11 17 16 13
16 -11z m45 -8 c3 -5 1 -10 -4 -10 -6 0 -11 5 -11 10 0 6 2 10 4 10 3 0 8 -4
11 -10z m1235 -12 c8 -13 14 -26 15 -30 0 -3 3 -10 8 -14 4 -4 7 -12 7 -18 0
-5 -9 0 -20 12 -11 12 -20 28 -20 36 0 8 -8 20 -17 25 -14 8 -15 10 -3 11 8 0
22 -10 30 -22z m33 2 c3 -11 3 -20 1 -20 -2 0 -8 9 -14 20 -6 11 -7 20 -2 20
6 0 12 -9 15 -20z m-256 -82 c-3 -8 -6 -5 -6 6 -1 11 2 17 5 13 3 -3 4 -12 1
-19z m-1073 -34 c2 -23 7 -38 14 -36 13 2 14 -4 4 -30 -9 -23 -30 -9 -33 22
-3 39 0 94 6 88 4 -3 7 -23 9 -44z m1151 6 c19 -8 19 -9 -2 -9 -12 -1 -25 4
-28 9 -7 12 2 12 30 0z m-1185 -10 c0 -5 -4 -10 -10 -10 -5 0 -10 5 -10 10 0
6 5 10 10 10 6 0 10 -4 10 -10z m1625 -40 c3 -5 1 -10 -4 -10 -6 0 -11 5 -11
10 0 6 2 10 4 10 3 0 8 -4 11 -10z m-508 -32 c-3 -8 -6 -5 -6 6 -1 11 2 17 5
13 3 -3 4 -12 1 -19z m-1060 -34 c-3 -3 -12 -4 -19 -1 -8 3 -5 6 6 6 11 1 17
-2 13 -5z m1593 -4 c0 -5 -2 -10 -4 -10 -3 0 -8 5 -11 10 -3 6 -1 10 4 10 6 0
11 -4 11 -10z m-1653 -50 c4 -8 8 -28 10 -45 4 -23 2 -27 -8 -18 -6 6 -13 33
-15 60 -1 26 0 41 2 33 3 -8 8 -22 11 -30z m963 30 c0 -5 -5 -10 -11 -10 -5 0
-7 5 -4 10 3 6 8 10 11 10 2 0 4 -4 4 -10z m-933 -92 c-2 -13 -4 -5 -4 17 -1
22 1 32 4 23 2 -10 2 -28 0 -40z m950 22 c2 -14 -2 -18 -12 -14 -16 6 -20 26
-8 37 9 9 16 1 20 -23z m-926 -57 c-9 -16 -10 -16 -11 -1 0 9 3 25 7 35 7 16
8 17 11 1 2 -10 -1 -25 -7 -35z m34 -14 c11 -17 -1 -21 -15 -4 -8 9 -8 15 -2
15 6 0 14 -5 17 -11z m-55 -35 c0 -8 -5 -12 -10 -9 -6 4 -8 11 -5 16 9 14 15
11 15 -7z m-23 -146 c-3 -8 -6 -5 -6 6 -1 11 2 17 5 13 3 -3 4 -12 1 -19z
m1187 -54 c10 -14 16 -29 14 -33 -2 -5 -13 7 -25 25 -12 19 -18 34 -14 34 5 0
16 -12 25 -26z m-599 -144 c3 -5 1 -10 -4 -10 -6 0 -11 5 -11 10 0 6 2 10 4
10 3 0 8 -4 11 -10z"/>
<path d="M1418 2173 c36 -7 25 -20 -35 -41 l-58 -19 27 -14 c15 -8 28 -18 29
-24 9 -50 68 -99 117 -98 19 1 37 5 41 10 3 4 23 17 43 27 28 14 40 28 48 55
5 20 10 39 10 43 0 17 -113 56 -177 61 -37 3 -58 3 -45 0z m118 -104 c6 -11
-31 -12 -66 -2 l-25 7 25 6 c28 7 58 2 66 -11z"/>
<path d="M911 2055 c0 -5 6 -19 14 -29 8 -11 15 -15 15 -10 0 6 -7 19 -15 30
-8 10 -14 15 -14 9z"/>
<path d="M1450 1570 c0 -5 7 -7 15 -4 8 4 15 8 15 10 0 2 -7 4 -15 4 -8 0 -15
-4 -15 -10z"/>
<path d="M465 1280 c-4 -7 -2 -17 4 -23 9 -9 11 -8 6 6 -10 26 4 21 15 -5 7
-18 9 -19 9 -5 1 9 6 17 12 17 5 0 8 -4 5 -8 -2 -4 11 -12 30 -18 l35 -11 -33
28 c-36 31 -48 35 -48 18 0 -8 -4 -8 -14 0 -11 9 -16 9 -21 1z"/>
<path d="M560 1286 c0 -2 7 -7 16 -10 8 -3 12 -2 9 4 -6 10 -25 14 -25 6z"/>
<path d="M638 1263 c7 -3 16 -2 19 1 4 3 -2 6 -13 5 -11 0 -14 -3 -6 -6z"/>
<path d="M684 1235 c-12 -8 -24 -11 -28 -8 -3 3 -6 0 -6 -7 0 -11 -3 -11 -12
-2 -7 7 -19 12 -27 12 -10 -1 -7 -6 9 -14 17 -10 30 -11 43 -4 13 6 23 5 35
-4 15 -11 15 -11 5 3 -10 12 -10 18 -1 27 16 16 7 15 -18 -3z"/>
<path d="M527 1200 c9 -11 19 -17 21 -15 6 6 -18 35 -29 35 -5 0 -1 -9 8 -20z"/>
<path d="M657 1179 c7 -7 15 -10 18 -7 3 3 -2 9 -12 12 -14 6 -15 5 -6 -5z"/>
<path d="M541 1141 c-8 -6 -9 -11 -3 -15 6 -3 14 -1 17 5 9 14 2 20 -14 10z"/>
<path d="M686 1141 c-3 -5 1 -11 9 -15 8 -3 15 -12 15 -21 0 -8 5 -15 10 -15
6 0 4 13 -5 30 -17 32 -21 35 -29 21z"/>
<path d="M641 1124 c0 -11 3 -14 6 -6 3 7 2 16 -1 19 -3 4 -6 -2 -5 -13z"/>
<path d="M824 1111 c20 -22 26 -25 26 -13 0 4 -10 13 -22 21 -23 14 -23 14 -4
-8z"/>
<path d="M612 1080 c0 -14 2 -19 5 -12 2 6 2 18 0 25 -3 6 -5 1 -5 -13z"/>
<path d="M545 1029 c4 -6 9 -8 13 -5 3 3 10 -2 17 -11 9 -13 14 -13 20 -3 5 8
4 11 -2 7 -6 -4 -13 0 -17 8 -3 8 -13 15 -21 15 -9 0 -13 -5 -10 -11z"/>
<path d="M808 1013 c7 -3 16 -2 19 1 4 3 -2 6 -13 5 -11 0 -14 -3 -6 -6z"/>
<path d="M625 989 c-4 -6 -5 -12 -2 -15 2 -3 7 2 10 11 7 17 1 20 -8 4z"/>
<path d="M575 980 c3 -5 8 -10 11 -10 2 0 4 5 4 10 0 6 -5 10 -11 10 -5 0 -7
-4 -4 -10z"/>
<path d="M680 971 c0 -10 19 -25 25 -20 1 2 -3 10 -11 17 -8 7 -14 8 -14 3z"/>
<path d="M780 976 c0 -2 7 -7 16 -10 8 -3 12 -2 9 4 -6 10 -25 14 -25 6z"/>
<path d="M854 958 c-4 -7 -3 -8 4 -4 7 4 12 3 12 -2 0 -6 8 -13 17 -16 15 -6
15 -4 -2 14 -21 23 -22 24 -31 8z"/>
<path d="M570 912 c0 -12 3 -12 15 -2 8 7 15 13 15 15 0 1 -7 2 -15 2 -8 0
-15 -7 -15 -15z"/>
<path d="M620 920 c0 -5 5 -10 11 -10 5 0 7 5 4 10 -3 6 -8 10 -11 10 -2 0 -4
-4 -4 -10z"/>
<path d="M815 860 c10 -11 20 -20 23 -20 3 0 -3 9 -13 20 -10 11 -20 20 -23
20 -3 0 3 -9 13 -20z"/>
<path d="M735 843 c-19 -14 -19 -14 6 -8 21 5 33 -1 69 -37 37 -36 40 -38 22
-11 -13 18 -35 41 -50 52 -25 17 -30 18 -47 4z"/>
<path d="M1320 790 c0 -5 5 -10 11 -10 5 0 7 5 4 10 -3 6 -8 10 -11 10 -2 0
-4 -4 -4 -10z"/>
<path d="M900 783 c0 -15 29 -49 30 -35 0 7 -7 20 -15 28 -8 9 -15 11 -15 7z"/>
<path d="M597 753 c-4 -3 -7 -11 -7 -17 0 -6 5 -5 12 2 6 6 9 14 7 17 -3 3 -9
2 -12 -2z"/>
<path d="M859 729 c5 -15 7 -30 4 -33 -4 -3 -1 -6 5 -6 17 0 15 22 -3 46 -14
18 -15 17 -6 -7z"/>
<path d="M1385 670 c6 -44 11 -57 20 -49 2 3 -3 25 -11 49 l-14 45 5 -45z"/>
<path d="M1420 670 c0 -5 5 -10 10 -10 6 0 10 5 10 10 0 6 -4 10 -10 10 -5 0
-10 -4 -10 -10z"/>
<path d="M750 661 c0 -10 19 -25 25 -20 1 2 -3 10 -11 17 -8 7 -14 8 -14 3z"/>
<path d="M862 649 c2 -7 10 -15 17 -17 8 -3 12 1 9 9 -2 7 -10 15 -17 17 -8 3
-12 -1 -9 -9z"/>
<path d="M1425 640 c-3 -5 -1 -10 4 -10 6 0 11 5 11 10 0 6 -2 10 -4 10 -3 0
-8 -4 -11 -10z"/>
<path d="M651 604 c0 -11 3 -14 6 -6 3 7 2 16 -1 19 -3 4 -6 -2 -5 -13z"/>
<path d="M1370 596 c5 -13 6 -27 3 -30 -4 -3 -2 -6 4 -6 6 0 11 -11 12 -25 1
-14 3 -36 4 -49 1 -13 5 -22 9 -20 3 2 9 -18 13 -46 4 -27 12 -50 17 -50 10 0
6 37 -8 74 -5 13 -4 17 3 13 6 -4 3 10 -7 30 -10 20 -16 43 -13 50 3 7 -5 28
-17 48 -25 41 -33 45 -20 11z"/>
<path d="M930 575 c0 -5 5 -17 10 -25 5 -8 10 -10 10 -5 0 6 -5 17 -10 25 -5
8 -10 11 -10 5z"/>
<path d="M603 548 c-2 -18 0 -20 7 -8 12 18 13 30 2 30 -4 0 -9 -10 -9 -22z"/>
<path d="M745 540 c-3 -6 1 -7 9 -4 18 7 21 14 7 14 -6 0 -13 -4 -16 -10z"/>
<path d="M680 524 c0 -8 5 -14 10 -14 6 0 10 -12 11 -27 1 -25 2 -25 9 7 5 19
6 37 4 39 -11 11 -34 8 -34 -5z"/>
<path d="M891 514 c0 -11 3 -14 6 -6 3 7 2 16 -1 19 -3 4 -6 -2 -5 -13z"/>
<path d="M916 505 c-9 -26 -7 -32 5 -12 6 10 9 21 6 23 -2 3 -7 -2 -11 -11z"/>
<path d="M891 474 c0 -11 3 -14 6 -6 3 7 2 16 -1 19 -3 4 -6 -2 -5 -13z"/>
<path d="M700 424 c0 -16 5 -36 10 -44 6 -10 7 -2 3 25 -7 49 -13 58 -13 19z"/>
<path d="M901 374 c0 -11 3 -14 6 -6 3 7 2 16 -1 19 -3 4 -6 -2 -5 -13z"/>
<path d="M622 355 c0 -16 2 -22 5 -12 2 9 2 23 0 30 -3 6 -5 -1 -5 -18z"/>
<path d="M941 354 c0 -11 3 -14 6 -6 3 7 2 16 -1 19 -3 4 -6 -2 -5 -13z"/>
<path d="M1511 354 c0 -11 3 -14 6 -6 3 7 2 16 -1 19 -3 4 -6 -2 -5 -13z"/>
<path d="M695 335 c4 -37 12 -40 13 -5 0 16 -3 30 -8 30 -4 0 -7 -11 -5 -25z"/>
<path d="M1492 330 c0 -14 2 -19 5 -12 2 6 2 18 0 25 -3 6 -5 1 -5 -13z"/>
<path d="M876 291 c-3 -5 2 -15 12 -22 15 -12 16 -12 5 2 -7 9 -10 19 -6 22 3
4 4 7 0 7 -3 0 -8 -4 -11 -9z"/>
<path d="M1510 290 c0 -5 5 -10 10 -10 6 0 10 5 10 10 0 6 -4 10 -10 10 -5 0
-10 -4 -10 -10z"/>
<path d="M622 279 c2 -6 8 -10 13 -10 5 0 11 4 13 10 2 6 -4 11 -13 11 -9 0
-15 -5 -13 -11z"/>
<path d="M678 283 c7 -3 16 -2 19 1 4 3 -2 6 -13 5 -11 0 -14 -3 -6 -6z"/>
<path d="M1540 272 c0 -7 -15 -13 -32 -13 -32 -2 -33 -2 -4 -6 28 -5 56 11 43
24 -4 3 -7 1 -7 -5z"/>
<path d="M1423 246 c4 -10 7 -20 7 -22 0 -2 4 -4 9 -4 14 0 6 33 -9 38 -9 3
-11 -1 -7 -12z"/>
<path d="M679 229 c-10 -6 -7 -9 14 -9 29 0 35 5 14 13 -8 3 -20 1 -28 -4z"/>
<path d="M777 210 c6 -25 23 -43 32 -34 3 2 -1 10 -7 16 -7 7 -12 17 -12 23 0
5 5 3 11 -5 9 -13 10 -12 5 3 -3 9 -1 17 4 17 6 0 10 -4 10 -10 0 -5 5 -10 12
-10 24 0 -12 25 -37 25 -21 1 -24 -2 -18 -25z"/>
<path d="M885 230 c4 -6 11 -7 17 -4 6 4 18 -2 26 -12 14 -18 14 -18 8 -1 -3
10 -6 21 -6 23 0 2 -12 4 -26 4 -14 0 -23 -4 -19 -10z"/>
<path d="M1465 230 c3 -6 13 -10 21 -10 8 0 14 -7 14 -15 0 -8 4 -15 10 -15 5
0 7 7 3 16 -3 9 -1 19 6 23 7 4 -4 8 -24 9 -21 1 -33 -3 -30 -8z"/>
<path d="M1406 197 c3 -10 9 -15 12 -12 3 3 0 11 -7 18 -10 9 -11 8 -5 -6z"/>
<path d="M1528 183 c-3 -12 0 -20 8 -20 16 0 17 6 5 25 -6 11 -9 9 -13 -5z"/>
<path d="M639 173 c-13 -16 -12 -17 4 -4 16 13 21 21 13 21 -2 0 -10 -8 -17
-17z"/>
<path d="M927 183 c-2 -5 -1 -19 4 -33 7 -23 7 -23 8 8 1 31 -3 40 -12 25z"/>
<path d="M750 173 c0 -6 12 -22 27 -37 25 -26 27 -33 32 -120 2 -19 14 4 17
31 3 30 -16 107 -24 98 -3 -3 -16 5 -29 17 -13 12 -23 17 -23 11z"/>
<path d="M878 173 c6 -2 18 -2 25 0 6 3 1 5 -13 5 -14 0 -19 -2 -12 -5z"/>
<path d="M1431 166 c-1 -11 4 -16 13 -13 17 7 56 -28 57 -51 0 -14 2 -13 8 3
6 15 2 26 -17 43 -13 13 -30 21 -38 18 -7 -3 -15 0 -18 7 -2 7 -5 4 -5 -7z"/>
<path d="M675 160 c-3 -6 1 -7 9 -4 18 7 21 14 7 14 -6 0 -13 -4 -16 -10z"/>
<path d="M843 154 c-7 -7 -13 -23 -12 -36 1 -20 3 -18 15 11 17 37 15 46 -3
25z"/>
<path d="M952 145 c2 -16 8 -36 16 -44 11 -11 12 -9 6 15 -11 47 -24 64 -22
29z"/>
<path d="M714 105 c4 -12 0 -14 -19 -9 -19 5 -25 2 -25 -10 0 -18 13 -20 41
-6 21 12 26 1 7 -19 -11 -10 -10 -12 1 -9 7 2 16 -3 19 -11 3 -10 -1 -13 -17
-8 -11 3 -21 2 -21 -2 0 -12 49 -35 57 -28 3 4 1 7 -6 7 -8 0 -10 7 -6 19 6
19 -18 91 -31 91 -3 0 -4 -7 0 -15z"/>
<path d="M890 108 c0 -9 9 -18 20 -21 11 -3 20 -10 20 -17 0 -6 -4 -8 -10 -5
-5 3 -10 -3 -10 -15 0 -12 5 -18 10 -15 6 3 10 -4 11 -17 0 -20 1 -20 8 -5 8
20 2 91 -7 82 -3 -3 -14 2 -24 12 -16 14 -18 14 -18 1z"/>
<path d="M1431 108 c0 -10 7 -25 18 -35 10 -10 24 -27 30 -38 11 -17 12 -17 7
-2 -3 11 -9 29 -12 42 -3 14 -11 22 -19 19 -7 -3 -15 3 -18 13 -4 16 -5 16 -6
1z"/>
<path d="M650 73 c0 -13 5 -23 10 -23 13 0 13 11 0 30 -8 12 -10 11 -10 -7z"/>
<path d="M680 49 c0 -5 5 -7 10 -4 6 3 10 8 10 11 0 2 -4 4 -10 4 -5 0 -10 -5
-10 -11z"/>
<path d="M1530 44 c0 -8 5 -12 10 -9 6 4 8 11 5 16 -9 14 -15 11 -15 -7z"/>
<path d="M1420 40 c0 -5 5 -10 10 -10 6 0 10 5 10 10 0 6 -4 10 -10 10 -5 0
-10 -4 -10 -10z"/>
<path d="M1511 34 c0 -11 3 -14 6 -6 3 7 2 16 -1 19 -3 4 -6 -2 -5 -13z"/>
<path d="M655 27 c-4 -10 -5 -21 -1 -24 10 -10 18 4 13 24 -4 17 -4 17 -12 0z"/>
<path d="M885 29 c-4 -6 -5 -12 -2 -15 2 -3 7 2 10 11 7 17 1 20 -8 4z"/>
<path d="M1450 17 c0 -10 8 -17 18 -17 9 0 13 4 7 8 -5 4 -13 11 -17 16 -5 5
-8 2 -8 -7z"/>
<path d="M1821 14 c0 -11 3 -14 6 -6 3 7 2 16 -1 19 -3 4 -6 -2 -5 -13z"/>
<path d="M955 10 c3 -5 8 -10 11 -10 2 0 4 5 4 10 0 6 -5 10 -11 10 -5 0 -7
-4 -4 -10z"/>
</g>
</svg>
